<?xml version="1.0" encoding="UTF-8"?>
<svg version="1.1" xmlns="http://www.w3.org/2000/svg" width="80" height="80">
<path d="M0 0 C0.74561188 -0.0071553 1.49122375 -0.01431061 2.25942993 -0.02168274 C3.82756364 -0.02942183 5.39580609 -0.02452823 6.96386719 -0.00756836 C9.3400002 0.01162535 11.71024486 -0.02773369 14.0859375 -0.07226562 C21.59667176 -0.11580068 27.96685165 0.02239005 34.13916016 4.82495117 C34.74550293 5.44345947 35.3518457 6.06196777 35.9765625 6.69921875 C36.86802979 7.43906006 37.75949707 8.17890137 38.67797852 8.94116211 C42.88401551 14.1433684 41.57941837 21.82183304 41.46484375 28.16015625 C41.45550945 29.67614574 41.44839625 31.19215039 41.44340515 32.7081604 C41.42438333 36.68367713 41.37532603 40.65826946 41.31988525 44.63342285 C41.26858754 48.69559222 41.2458688 52.75791207 41.22070312 56.8203125 C41.1672009 64.78037047 41.08194856 72.73967937 40.9765625 80.69921875 C31.2669883 80.81504906 21.55757835 80.90390163 11.84745407 80.95827961 C7.33864699 80.98437804 2.83031245 81.01977997 -1.67822266 81.07641602 C-6.02895503 81.13072796 -10.37923282 81.16063743 -14.73027802 81.17360497 C-16.39053251 81.18284642 -18.05076201 81.20089318 -19.71082306 81.22786903 C-22.03595301 81.26415083 -24.35920301 81.26916482 -26.68457031 81.2668457 C-27.3714946 81.28482208 -28.05841888 81.30279846 -28.76615906 81.32131958 C-32.41884302 81.28187937 -33.7893397 80.92384852 -36.46478271 78.35661316 C-39.60012675 73.01107687 -37.94163337 66.25957008 -36.44921875 60.47265625 C-34.87657392 56.34559989 -32.3595244 53.52206151 -29.0234375 50.69921875 C-28.3634375 50.69921875 -27.7034375 50.69921875 -27.0234375 50.69921875 C-27.14265977 46.61496761 -27.14265977 46.61496761 -28.0234375 42.69921875 C-30.87409479 40.73192914 -30.87409479 40.73192914 -34.0234375 39.69921875 C-34.6834375 39.03921875 -35.3434375 38.37921875 -36.0234375 37.69921875 C-36.0234375 36.70921875 -36.0234375 35.71921875 -36.0234375 34.69921875 C-35.3634375 34.69921875 -34.7034375 34.69921875 -34.0234375 34.69921875 C-34.0234375 34.03921875 -34.0234375 33.37921875 -34.0234375 32.69921875 C-34.6628125 32.45171875 -35.3021875 32.20421875 -35.9609375 31.94921875 C-38.0234375 30.69921875 -38.0234375 30.69921875 -38.7734375 28.57421875 C-38.8559375 27.95546875 -38.9384375 27.33671875 -39.0234375 26.69921875 C-38.2190625 26.45171875 -37.4146875 26.20421875 -36.5859375 25.94921875 C-33.8523565 24.97683016 -33.8523565 24.97683016 -33.2109375 22.57421875 C-33.1490625 21.95546875 -33.0871875 21.33671875 -33.0234375 20.69921875 C-30.69010417 20.69921875 -28.35677083 20.69921875 -26.0234375 20.69921875 C-25.77980469 19.97734375 -25.53617188 19.25546875 -25.28515625 18.51171875 C-23.8637855 15.34333813 -22.16680972 13.26678884 -19.8359375 10.69921875 C-19.09988281 9.87421875 -18.36382813 9.04921875 -17.60546875 8.19921875 C-12.07894486 2.84827277 -7.97128921 -0.07939349 0 0 Z " fill="#DCDA99" transform="translate(39.0234375,-0.69921875)"/>
<path d="M0 0 C1.19496094 0.01740234 1.19496094 0.01740234 2.4140625 0.03515625 C3.60128906 0.04869141 3.60128906 0.04869141 4.8125 0.0625 C5.54726563 0.07410156 6.28203125 0.08570313 7.0390625 0.09765625 C8.0290625 0.09765625 9.0190625 0.09765625 10.0390625 0.09765625 C12.2690349 0.25317114 14.49815346 0.4211486 16.7265625 0.59765625 C17.90605469 0.69046875 19.08554687 0.78328125 20.30078125 0.87890625 C21.65623047 0.9871875 21.65623047 0.9871875 23.0390625 1.09765625 C23.0390625 4.39765625 23.0390625 7.69765625 23.0390625 11.09765625 C24.3590625 11.75765625 25.6790625 12.41765625 27.0390625 13.09765625 C27.72659551 14.75582409 28.39467533 16.42224961 29.0390625 18.09765625 C30.0290625 18.42765625 31.0190625 18.75765625 32.0390625 19.09765625 C31.5440625 20.58265625 31.5440625 20.58265625 31.0390625 22.09765625 C29.19140625 22.828125 29.19140625 22.828125 26.9765625 23.28515625 C26.24308594 23.44371094 25.50960937 23.60226563 24.75390625 23.765625 C24.18800781 23.87519531 23.62210938 23.98476563 23.0390625 24.09765625 C23.6990625 25.41765625 24.3590625 26.73765625 25.0390625 28.09765625 C25.6990625 28.09765625 26.3590625 28.09765625 27.0390625 28.09765625 C27.6990625 30.40765625 28.3590625 32.71765625 29.0390625 35.09765625 C28.3790625 35.09765625 27.7190625 35.09765625 27.0390625 35.09765625 C27.0390625 36.08765625 27.0390625 37.07765625 27.0390625 38.09765625 C22.1640625 36.22265625 22.1640625 36.22265625 21.0390625 35.09765625 C20.3790625 35.75765625 19.7190625 36.41765625 19.0390625 37.09765625 C20.6890625 37.75765625 22.3390625 38.41765625 24.0390625 39.09765625 C24.5340625 42.56265625 24.5340625 42.56265625 25.0390625 46.09765625 C19.20417936 46.22182709 13.37007566 46.31226449 7.53417969 46.37231445 C5.55162141 46.39736308 3.56915461 46.43141209 1.58691406 46.47485352 C-1.27301676 46.53593244 -4.13172042 46.56396254 -6.9921875 46.5859375 C-8.30830017 46.62464714 -8.30830017 46.62464714 -9.65100098 46.66413879 C-15.89073057 46.66694322 -20.16401832 45.1727398 -24.9609375 41.09765625 C-27.32842034 36.36269058 -26.66411772 30.20408402 -25.9609375 25.09765625 C-23.76815066 21.17704522 -21.00474026 18.11955763 -16.9609375 16.09765625 C-15.09036959 15.87015475 -13.21407792 15.68802814 -11.3359375 15.53515625 C-10.33304688 15.45136719 -9.33015625 15.36757813 -8.296875 15.28125 C-7.52601562 15.22066406 -6.75515625 15.16007812 -5.9609375 15.09765625 C-5.9609375 13.11765625 -5.9609375 11.13765625 -5.9609375 9.09765625 C-5.3009375 8.76765625 -4.6409375 8.43765625 -3.9609375 8.09765625 C-3.58692964 5.77049625 -3.25329017 3.43647763 -2.9609375 1.09765625 C-1.9609375 0.09765625 -1.9609375 0.09765625 0 0 Z " fill="#FCA9D3" transform="translate(30.9609375,33.90234375)"/>
<path d="M0 0 C0.74561188 -0.0071553 1.49122375 -0.01431061 2.25942993 -0.02168274 C3.82756364 -0.02942183 5.39580609 -0.02452823 6.96386719 -0.00756836 C9.3400002 0.01162535 11.71024486 -0.02773369 14.0859375 -0.07226562 C21.59667176 -0.11580068 27.96685165 0.02239005 34.13916016 4.82495117 C34.74550293 5.44345947 35.3518457 6.06196777 35.9765625 6.69921875 C36.86802979 7.59697021 37.75949707 8.49472168 38.67797852 9.41967773 C41.4844567 12.87215338 41.62634549 16.18032334 41.46484375 20.50390625 C41.45776901 21.22788605 41.45069427 21.95186584 41.44340515 22.69778442 C41.41560359 24.99101851 41.35290325 27.28173362 41.2890625 29.57421875 C41.26396072 31.13668327 41.24115084 32.69918639 41.22070312 34.26171875 C41.16582524 38.0751768 41.07966162 41.88677201 40.9765625 45.69921875 C39.4915625 44.70921875 39.4915625 44.70921875 37.9765625 43.69921875 C37.56812327 40.98718223 37.84319383 38.45550455 37.9765625 35.69921875 C37.3165625 35.69921875 36.6565625 35.69921875 35.9765625 35.69921875 C35.8528125 34.66796875 35.7290625 33.63671875 35.6015625 32.57421875 C35.03529978 29.0633899 34.16351451 26.03752128 32.9765625 22.69921875 C32.62679492 21.37010193 32.28560233 20.03839136 31.9765625 18.69921875 C30.9865625 18.69921875 29.9965625 18.69921875 28.9765625 18.69921875 C28.9765625 18.03921875 28.9765625 17.37921875 28.9765625 16.69921875 C29.6365625 16.36921875 30.2965625 16.03921875 30.9765625 15.69921875 C30.9765625 14.70921875 30.9765625 13.71921875 30.9765625 12.69921875 C28.19542194 10.36530672 28.19542194 10.36530672 25.2890625 11.07421875 C24.5259375 11.28046875 23.7628125 11.48671875 22.9765625 11.69921875 C22.9765625 10.37921875 22.9765625 9.05921875 22.9765625 7.69921875 C20.6665625 6.70921875 18.3565625 5.71921875 15.9765625 4.69921875 C15.9765625 5.35921875 15.9765625 6.01921875 15.9765625 6.69921875 C14.3265625 6.69921875 12.6765625 6.69921875 10.9765625 6.69921875 C10.9765625 5.70921875 10.9765625 4.71921875 10.9765625 3.69921875 C7.63282775 4.25650788 4.94343251 5.05095764 1.9765625 6.69921875 C1.9765625 6.03921875 1.9765625 5.37921875 1.9765625 4.69921875 C1.3165625 5.02921875 0.6565625 5.35921875 -0.0234375 5.69921875 C-1.3434375 5.69921875 -2.6634375 5.69921875 -4.0234375 5.69921875 C-4.0234375 5.03921875 -4.0234375 4.37921875 -4.0234375 3.69921875 C-10.43999047 5.70439155 -16.17662808 9.70241433 -19.5234375 15.57421875 C-20.0184375 16.60546875 -20.5134375 17.63671875 -21.0234375 18.69921875 C-20.0334375 18.69921875 -19.0434375 18.69921875 -18.0234375 18.69921875 C-18.1884375 19.58609375 -18.3534375 20.47296875 -18.5234375 21.38671875 C-18.95339507 24.23518767 -19.10784785 26.82926677 -19.0234375 29.69921875 C-20.6734375 30.02921875 -22.3234375 30.35921875 -24.0234375 30.69921875 C-24.0234375 29.37921875 -24.0234375 28.05921875 -24.0234375 26.69921875 C-24.9103125 27.02921875 -25.7971875 27.35921875 -26.7109375 27.69921875 C-29.73267097 28.61144018 -31.90717456 28.88252833 -35.0234375 28.69921875 C-34.6934375 29.35921875 -34.3634375 30.01921875 -34.0234375 30.69921875 C-31.70187153 31.10651103 -29.3665588 31.44360552 -27.0234375 31.69921875 C-29.4984375 34.17421875 -29.4984375 34.17421875 -32.0234375 36.69921875 C-29.7134375 37.35921875 -27.4034375 38.01921875 -25.0234375 38.69921875 C-24.24362617 42.74899522 -23.70740331 46.57497256 -24.0234375 50.69921875 C-25.56338285 52.89491005 -27.02597695 54.05989859 -29.26171875 55.515625 C-31.32602804 56.74001378 -31.32602804 56.74001378 -33.0234375 59.69921875 C-33.16589647 62.46577199 -33.21113195 65.12575181 -33.1484375 67.88671875 C-33.13490234 69.01110352 -33.13490234 69.01110352 -33.12109375 70.15820312 C-33.09756328 72.00534529 -33.06169311 73.85232287 -33.0234375 75.69921875 C-32.2603125 75.96734375 -31.4971875 76.23546875 -30.7109375 76.51171875 C-28.14962866 77.64345987 -26.82650812 78.61145276 -25.0234375 80.69921875 C-26.43740723 80.83517738 -27.85520434 80.9316572 -29.2734375 81.01171875 C-30.06234375 81.06972656 -30.85125 81.12773438 -31.6640625 81.1875 C-34.0234375 80.69921875 -34.0234375 80.69921875 -36.32421875 78.578125 C-39.32758684 73.48965998 -37.98842629 68.32253473 -37.0234375 62.69921875 C-35.70088206 57.57094257 -33.06731336 54.12095987 -29.0234375 50.69921875 C-28.3634375 50.69921875 -27.7034375 50.69921875 -27.0234375 50.69921875 C-27.14265977 46.61496761 -27.14265977 46.61496761 -28.0234375 42.69921875 C-30.87409479 40.73192914 -30.87409479 40.73192914 -34.0234375 39.69921875 C-34.6834375 39.03921875 -35.3434375 38.37921875 -36.0234375 37.69921875 C-36.0234375 36.70921875 -36.0234375 35.71921875 -36.0234375 34.69921875 C-35.3634375 34.69921875 -34.7034375 34.69921875 -34.0234375 34.69921875 C-34.0234375 34.03921875 -34.0234375 33.37921875 -34.0234375 32.69921875 C-34.6628125 32.45171875 -35.3021875 32.20421875 -35.9609375 31.94921875 C-38.0234375 30.69921875 -38.0234375 30.69921875 -38.7734375 28.57421875 C-38.8559375 27.95546875 -38.9384375 27.33671875 -39.0234375 26.69921875 C-38.2190625 26.45171875 -37.4146875 26.20421875 -36.5859375 25.94921875 C-33.8523565 24.97683016 -33.8523565 24.97683016 -33.2109375 22.57421875 C-33.1490625 21.95546875 -33.0871875 21.33671875 -33.0234375 20.69921875 C-30.69010417 20.69921875 -28.35677083 20.69921875 -26.0234375 20.69921875 C-25.77980469 19.97734375 -25.53617188 19.25546875 -25.28515625 18.51171875 C-23.8637855 15.34333813 -22.16680972 13.26678884 -19.8359375 10.69921875 C-19.09988281 9.87421875 -18.36382813 9.04921875 -17.60546875 8.19921875 C-12.07894486 2.84827277 -7.97128921 -0.07939349 0 0 Z " fill="#C5C87F" transform="translate(39.0234375,-0.69921875)"/>
<path d="M0 0 C2 2 2 2 3 4.0625 C3.84589942 6.16865601 3.84589942 6.16865601 6 7 C6 15.91 6 24.82 6 34 C-1.92 34 -9.84 34 -18 34 C-18.66 31.69 -19.32 29.38 -20 27 C-20.804375 26.87625 -21.60875 26.7525 -22.4375 26.625 C-23.7059375 26.315625 -23.7059375 26.315625 -25 26 C-25.33 25.34 -25.66 24.68 -26 24 C-24.35 23.34 -22.7 22.68 -21 22 C-21 22.66 -21 23.32 -21 24 C-18.525 24.99 -18.525 24.99 -16 26 C-16 25.01 -16 24.02 -16 23 C-15.34 23 -14.68 23 -14 23 C-14.66 22.01 -15.32 21.02 -16 20 C-16 18.68 -16 17.36 -16 16 C-16.66 16 -17.32 16 -18 16 C-19.625 13.5 -19.625 13.5 -21 11 C-20.37351562 10.91363281 -19.74703125 10.82726563 -19.1015625 10.73828125 C-16.63217125 10.31373291 -14.35643158 9.85727584 -12 9 C-10.32386813 6.52985528 -10.32386813 6.52985528 -10 4 C-9.34 4 -8.68 4 -8 4 C-8.75 9.75 -8.75 9.75 -11 12 C-9.68 11.67 -8.36 11.34 -7 11 C-6.67 9.68 -6.34 8.36 -6 7 C-5.34 7 -4.68 7 -4 7 C-2.68 4.69 -1.36 2.38 0 0 Z " fill="#CFCD8B" transform="translate(74,46)"/>
<path d="M0 0 C1.65 0.33 3.3 0.66 5 1 C5.268125 2.134375 5.53625 3.26875 5.8125 4.4375 C6.204375 5.613125 6.59625 6.78875 7 8 C10 9.33333333 10 9.33333333 13 8 C13.99 9.485 13.99 9.485 15 11 C16.32 10.34 17.64 9.68 19 9 C19 9.66 19 10.32 19 11 C19.66 11 20.32 11 21 11 C21.1953125 13.01822917 21.390625 15.03645833 21.5859375 17.0546875 C21.86374749 19.22668245 21.86374749 19.22668245 24 21 C24.26991906 23.68839385 24.08737357 26.29141936 24 29 C20.83884224 27.63016497 20.0072908 27.0109362 18 24 C17.01 25.98 16.02 27.96 15 30 C14.01 29.67 13.02 29.34 12 29 C11.505 31.475 11.505 31.475 11 34 C8.525 34.495 8.525 34.495 6 35 C6.474375 34.2575 6.94875 33.515 7.4375 32.75 C8.77869327 30.38949985 9.512312 28.63351523 10 26 C9.34 26 8.68 26 8 26 C7.67 27.32 7.34 28.64 7 30 C4.5 28.75 4.5 28.75 2 27 C2 25.68 2 24.36 2 23 C1.360625 22.855625 0.72125 22.71125 0.0625 22.5625 C-2 22 -2 22 -3 21 C-3.07179964 19.48071962 -3.08392007 17.95832518 -3.0625 16.4375 C-3.05347656 15.61121094 -3.04445312 14.78492188 -3.03515625 13.93359375 C-3.02355469 13.29550781 -3.01195312 12.65742187 -3 12 C-0.69 11.34 1.62 10.68 4 10 C3.42415568 7.61435923 2.77772405 5.33317216 2 3 C1.01 3 0.02 3 -1 3 C-0.67 2.01 -0.34 1.02 0 0 Z " fill="#D9D795" transform="translate(56,24)"/>
<path d="M0 0 C0 0.33 0 0.66 0 1 C-0.54527344 1.13535156 -1.09054688 1.27070313 -1.65234375 1.41015625 C-9.51913212 3.655889 -16.38838217 7.69158419 -20.5625 14.9375 C-21.036875 15.948125 -21.51125 16.95875 -22 18 C-21.01 18 -20.02 18 -19 18 C-19.165 18.886875 -19.33 19.77375 -19.5 20.6875 C-19.92995757 23.53596892 -20.08441035 26.13004802 -20 29 C-21.65 29.33 -23.3 29.66 -25 30 C-25 28.68 -25 27.36 -25 26 C-25.886875 26.33 -26.77375 26.66 -27.6875 27 C-30.70923347 27.91222143 -32.88373706 28.18330958 -36 28 C-35.67 28.66 -35.34 29.32 -35 30 C-32.67843403 30.40729228 -30.3431213 30.74438677 -28 31 C-30.475 33.475 -30.475 33.475 -33 36 C-30.69 36.66 -28.38 37.32 -26 38 C-25.22018867 42.04977647 -24.68396581 45.87575381 -25 50 C-26.53994535 52.1956913 -28.00253945 53.36067984 -30.23828125 54.81640625 C-32.30259054 56.04079503 -32.30259054 56.04079503 -34 59 C-34.14245897 61.76655324 -34.18769445 64.42653306 -34.125 67.1875 C-34.11146484 68.31188477 -34.11146484 68.31188477 -34.09765625 69.45898438 C-34.07412578 71.30612654 -34.03825561 73.15310412 -34 75 C-33.236875 75.268125 -32.47375 75.53625 -31.6875 75.8125 C-29.12619116 76.94424112 -27.80307062 77.91223401 -26 80 C-27.41396973 80.13595863 -28.83176684 80.23243845 -30.25 80.3125 C-31.03890625 80.37050781 -31.8278125 80.42851563 -32.640625 80.48828125 C-35 80 -35 80 -37.30078125 77.87890625 C-40.30414934 72.79044123 -38.96498879 67.62331598 -38 62 C-36.67744456 56.87172382 -34.04387586 53.42174112 -30 50 C-29.34 50 -28.68 50 -28 50 C-28.11922227 45.91574886 -28.11922227 45.91574886 -29 42 C-31.85065729 40.03271039 -31.85065729 40.03271039 -35 39 C-35.66 38.34 -36.32 37.68 -37 37 C-37 36.01 -37 35.02 -37 34 C-36.34 34 -35.68 34 -35 34 C-35 33.34 -35 32.68 -35 32 C-35.639375 31.7525 -36.27875 31.505 -36.9375 31.25 C-39 30 -39 30 -39.75 27.875 C-39.8325 27.25625 -39.915 26.6375 -40 26 C-39.195625 25.7525 -38.39125 25.505 -37.5625 25.25 C-34.828919 24.27761141 -34.828919 24.27761141 -34.1875 21.875 C-34.125625 21.25625 -34.06375 20.6375 -34 20 C-31.66666667 20 -29.33333333 20 -27 20 C-26.75636719 19.278125 -26.51273438 18.55625 -26.26171875 17.8125 C-21.49968918 7.19744957 -11.7332457 -1.19726997 0 0 Z " fill="#0C0804" transform="translate(40,0)"/>
<path d="M0 0 C-0.66 0 -1.32 0 -2 0 C-2 0.66 -2 1.32 -2 2 C0.64 1.01 3.28 0.02 6 -1 C6 -0.34 6 0.32 6 1 C5.34 1 4.68 1 4 1 C4 1.66 4 2.32 4 3 C4.37125 2.505 4.7425 2.01 5.125 1.5 C7.74694393 -0.59755514 9.73842472 -0.21743835 13 0 C13.495 0.99 13.495 0.99 14 2 C16.02463255 2.65213292 16.02463255 2.65213292 18 3 C17.505 1.515 17.505 1.515 17 0 C21.95 1.485 21.95 1.485 27 3 C26.34 3.33 25.68 3.66 25 4 C25 5.65 25 7.3 25 9 C27.475 9.495 27.475 9.495 30 10 C28.3125 10.6875 28.3125 10.6875 26 11 C23.5 9.5 23.5 9.5 21 8 C14.52363034 5.75126054 8.70499547 5.96415519 2 7 C2.33 7.99 2.66 8.98 3 10 C1.68 10.33 0.36 10.66 -1 11 C-1 11.66 -1 12.32 -1 13 C-2.98 13.99 -2.98 13.99 -5 15 C-5.66 14.34 -6.32 13.68 -7 13 C-7.99 14.485 -7.99 14.485 -9 16 C-9.66 16 -10.32 16 -11 16 C-12.28949167 17.79526111 -12.28949167 17.79526111 -13.5 20 C-14.78125 22.25 -14.78125 22.25 -16 24 C-16.66 24 -17.32 24 -18 24 C-18 21 -18 18 -18 15 C-18.66 15.33 -19.32 15.66 -20 16 C-17.73597731 8.52872513 -12.29912227 3.84280949 -5.9296875 -0.25 C-3.55367122 -1.17347191 -2.36217452 -0.83988427 0 0 Z " fill="#B9BA7B" transform="translate(37,3)"/>
<path d="M0 0 C0.80566406 0.00257812 1.61132812 0.00515625 2.44140625 0.0078125 C3.64603516 0.00394531 3.64603516 0.00394531 4.875 0 C7.00390625 0.1328125 7.00390625 0.1328125 9.00390625 1.1328125 C8.75390625 4.0078125 8.75390625 4.0078125 8.00390625 7.1328125 C5.94140625 8.5078125 5.94140625 8.5078125 4.00390625 9.1328125 C4.66390625 9.4628125 5.32390625 9.7928125 6.00390625 10.1328125 C6.00390625 10.7928125 6.00390625 11.4528125 6.00390625 12.1328125 C6.71546875 11.359375 6.71546875 11.359375 7.44140625 10.5703125 C11.27180142 8.42155423 14.80857093 9.21375324 19.00390625 10.1328125 C19.33390625 10.4628125 19.66390625 10.7928125 20.00390625 11.1328125 C19.40390625 17.7328125 19.40390625 17.7328125 17.00390625 20.1328125 C14.67102133 20.17855534 12.33692611 20.17105873 10.00390625 20.1328125 C8.89015625 20.4215625 7.77640625 20.7103125 6.62890625 21.0078125 C1.87873769 21.17161142 -0.45549516 19.64005504 -4.23828125 16.90234375 C-5.99609375 15.1328125 -5.99609375 15.1328125 -6.55859375 11.7578125 C-6.37296875 10.8915625 -6.18734375 10.0253125 -5.99609375 9.1328125 C-5.33609375 8.8028125 -4.67609375 8.4728125 -3.99609375 8.1328125 C-3.62208589 5.8056525 -3.28844642 3.47163388 -2.99609375 1.1328125 C-1.99609375 0.1328125 -1.99609375 0.1328125 0 0 Z " fill="#FCDFD8" transform="translate(30.99609375,33.8671875)"/>
<path d="M0 0 C0 1.32 0 2.64 0 4 C1.65 3.67 3.3 3.34 5 3 C4.34 6.3 3.68 9.6 3 13 C4.32 13.33 5.64 13.66 7 14 C7 14.66 7 15.32 7 16 C7.66 16 8.32 16 9 16 C9.6878236 13.64632287 9.6878236 13.64632287 10 11 C9.34 10.01 8.68 9.02 8 8 C8.99 8 9.98 8 11 8 C11 7.34 11 6.68 11 6 C16.48946087 4.87970186 19.83430559 5.20782031 25 7 C24.34 8.32 23.68 9.64 23 11 C23 10.01 23 9.02 23 8 C18.545 8.495 18.545 8.495 14 9 C14 10.32 14 11.64 14 13 C13.34 13 12.68 13 12 13 C12.33 14.65 12.66 16.3 13 18 C12.01 17.67 11.02 17.34 10 17 C10.33 19.31 10.66 21.62 11 24 C7.37 24 3.74 24 0 24 C-0.84728203 19.76358987 -1.08384078 16.27587998 -1 12 C-2.423125 12.0928125 -2.423125 12.0928125 -3.875 12.1875 C-4.90625 12.125625 -5.9375 12.06375 -7 12 C-7.66 11.01 -8.32 10.02 -9 9 C-7.35 8.01 -5.7 7.02 -4 6 C-5.134375 5.731875 -6.26875 5.46375 -7.4375 5.1875 C-8.613125 4.795625 -9.78875 4.40375 -11 4 C-11.33 3.01 -11.66 2.02 -12 1 C-10.56274129 0.83126522 -9.12518162 0.66509263 -7.6875 0.5 C-6.88699219 0.4071875 -6.08648437 0.314375 -5.26171875 0.21875 C-3 0 -3 0 0 0 Z " fill="#DCD4A1" transform="translate(15,26)"/>
<path d="M0 0 C0.99 0.66 1.98 1.32 3 2 C3.99 1.67 4.98 1.34 6 1 C6 4.63 6 8.26 6 12 C5.01 12.495 5.01 12.495 4 13 C2.86649466 15.01669827 2.86649466 15.01669827 2 17 C0.02 17 -1.96 17 -4 17 C-4 17.66 -4 18.32 -4 19 C-4.66 19.33 -5.32 19.66 -6 20 C-5.34 20.66 -4.68 21.32 -4 22 C-4.375 24.125 -4.375 24.125 -5 26 C-9 26 -9 26 -11 25 C-11.66 26.32 -12.32 27.64 -13 29 C-13.74429519 19.13808877 -10.34464029 10.51338982 -4 3 C-3.34 3 -2.68 3 -2 3 C-1.34 2.01 -0.68 1.02 0 0 Z " fill="#CFCE90" transform="translate(30,15)"/>
<path d="M0 0 C4.29 0.33 8.58 0.66 13 1 C13 4.3 13 7.6 13 11 C14.32 11.66 15.64 12.32 17 13 C17.68753301 14.65816784 18.35561283 16.32459336 19 18 C19.99 18.33 20.98 18.66 22 19 C21 22 21 22 19 23 C14.05730019 23.2430836 10.50990242 23.25495121 6 21 C6.495 20.278125 6.99 19.55625 7.5 18.8125 C9.07919285 15.85151341 9.28178312 14.28746971 9 11 C7.58566794 10.7763663 6.16832382 10.57173524 4.75 10.375 C3.96109375 10.25898437 3.1721875 10.14296875 2.359375 10.0234375 C-0.33432325 9.99667891 -1.65462957 10.76717708 -4 12 C-4.66 11.67 -5.32 11.34 -6 11 C-6 10.34 -6 9.68 -6 9 C-5.071875 8.1028125 -5.071875 8.1028125 -4.125 7.1875 C-1.56338853 4.8281541 -1.56338853 4.8281541 0 0 Z " fill="#FBE5D7" transform="translate(41,34)"/>
<path d="M0 0 C1.14210938 -0.04576172 2.28421875 -0.09152344 3.4609375 -0.13867188 C12.41082186 -0.25697494 17.42773722 1.9253162 23.90161133 7.98291016 C26.14130942 10.391196 27.20443883 12.01833727 27.5625 15.3125 C27.459375 16.01375 27.35625 16.715 27.25 17.4375 C25.05563674 15.32150685 23.1516445 13.2998023 21.375 10.8125 C18.85883308 8.00031344 16.86330634 7.34082658 13.25 6.4375 C13.25 8.0875 13.25 9.7375 13.25 11.4375 C11.93 11.4375 10.61 11.4375 9.25 11.4375 C9.25 10.1175 9.25 8.7975 9.25 7.4375 C6.94 6.4475 4.63 5.4575 2.25 4.4375 C2.25 5.0975 2.25 5.7575 2.25 6.4375 C0.6 6.4375 -1.05 6.4375 -2.75 6.4375 C-2.75 5.4475 -2.75 4.4575 -2.75 3.4375 C-6.09373475 3.99478913 -8.78312999 4.78923889 -11.75 6.4375 C-11.75 5.7775 -11.75 5.1175 -11.75 4.4375 C-12.74 4.9325 -12.74 4.9325 -13.75 5.4375 C-15.07 5.4375 -16.39 5.4375 -17.75 5.4375 C-17.75 4.1175 -17.75 2.7975 -17.75 1.4375 C-11.85205959 0.10877635 -6.02361623 0.09726329 0 0 Z " fill="#BFC17A" transform="translate(52.75,-0.4375)"/>
<path d="M0 0 C1.85625 0.0309375 1.85625 0.0309375 3.75 0.0625 C3.75 0.7225 3.75 1.3825 3.75 2.0625 C4.41 2.0625 5.07 2.0625 5.75 2.0625 C5.42 3.7125 5.09 5.3625 4.75 7.0625 C5.74 7.3925 6.73 7.7225 7.75 8.0625 C7.625 10.875 7.625 10.875 6.75 14.0625 C4.1875 16.25 4.1875 16.25 0.75 17.0625 C-2.90156225 15.58321748 -6.45211005 13.65827989 -8.25 10.0625 C-8.31950541 8.52226004 -8.33452357 6.97915012 -8.3125 5.4375 C-8.30347656 4.62023437 -8.29445313 3.80296875 -8.28515625 2.9609375 C-8.27355469 2.33445312 -8.26195312 1.70796875 -8.25 1.0625 C-5.42068148 0.25321295 -2.93915923 -0.04898599 0 0 Z " fill="#D89EB2" transform="translate(13.25,62.9375)"/>
<path d="M0 0 C0.66 0 1.32 0 2 0 C1.25 5.75 1.25 5.75 -1 8 C1.64 8.66 4.28 9.32 7 10 C7 10.66 7 11.32 7 12 C8.65 11.34 10.3 10.68 12 10 C12 10.66 12 11.32 12 12 C10.02 12.99 10.02 12.99 8 14 C8 15.65 8 17.3 8 19 C7.01 18.67 6.02 18.34 5 18 C4.01 18.33 3.02 18.66 2 19 C2 18.34 2 17.68 2 17 C1.236875 17.20625 0.47375 17.4125 -0.3125 17.625 C-3 18 -3 18 -6 16 C-6 14.68 -6 13.36 -6 12 C-6.66 12 -7.32 12 -8 12 C-9.625 9.5 -9.625 9.5 -11 7 C-10.37351563 6.91363281 -9.74703125 6.82726563 -9.1015625 6.73828125 C-6.63217125 6.31373291 -4.35643158 5.85727584 -2 5 C-0.32386813 2.52985528 -0.32386813 2.52985528 0 0 Z " fill="#7B7C41" transform="translate(64,50)"/>
<path d="M0 0 C1.32 0.33 2.64 0.66 4 1 C3.34 1 2.68 1 2 1 C2 1.66 2 2.32 2 3 C4.64 2.01 7.28 1.02 10 0 C10 0.66 10 1.32 10 2 C9.34 2 8.68 2 8 2 C8 2.66 8 3.32 8 4 C8.37125 3.505 8.7425 3.01 9.125 2.5 C11.74694393 0.40244486 13.73842472 0.78256165 17 1 C17.33 1.66 17.66 2.32 18 3 C20.02463255 3.65213292 20.02463255 3.65213292 22 4 C21.67 3.01 21.34 2.02 21 1 C25.95 2.485 25.95 2.485 31 4 C30.34 4.33 29.68 4.66 29 5 C29 6.32 29 7.64 29 9 C17 6 17 6 14.83203125 5.3828125 C11.76618348 4.74218759 9.03495331 5.39300934 6 6 C5.01 6.66 4.02 7.32 3 8 C0.3125 8.125 0.3125 8.125 -2 8 C-2 8.66 -2 9.32 -2 10 C-2.61875 10.2475 -3.2375 10.495 -3.875 10.75 C-6.35068687 12.20628639 -6.95125002 13.37812506 -8 16 C-8.66 15.67 -9.32 15.34 -10 15 C-7.125 9.125 -7.125 9.125 -6 8 C-6 7.34 -6 6.68 -6 6 C-4.02 5.01 -2.04 4.02 0 3 C0 2.01 0 1.02 0 0 Z " fill="#DCDE93" transform="translate(33,2)"/>
<path d="M0 0 C2 2 2 2 3 4.0625 C3.84589942 6.16865601 3.84589942 6.16865601 6 7 C6 9.64 6 12.28 6 15 C5.67 14.34 5.34 13.68 5 13 C4.05125 13.495 3.1025 13.99 2.125 14.5 C-1 16 -1 16 -3 16 C-3 15.34 -3 14.68 -3 14 C-4.65 13.67 -6.3 13.34 -8 13 C-7.34 11.02 -6.68 9.04 -6 7 C-5.34 7 -4.68 7 -4 7 C-2.68 4.69 -1.36 2.38 0 0 Z " fill="#A7A371" transform="translate(74,46)"/>
<path d="M0 0 C1.20462891 0.16048828 1.20462891 0.16048828 2.43359375 0.32421875 C3.64208984 0.47310547 3.64208984 0.47310547 4.875 0.625 C6.87109375 1.01171875 6.87109375 1.01171875 7.87109375 2.01171875 C7.27109375 8.61171875 7.27109375 8.61171875 4.87109375 11.01171875 C1.76762121 11.3418754 -0.28671801 11.51703169 -3.00390625 9.88671875 C-4.63421919 7.16953051 -4.4590629 5.11519129 -4.12890625 2.01171875 C-2.12890625 0.01171875 -2.12890625 0.01171875 0 0 Z " fill="#DAA3A0" transform="translate(43.12890625,42.98828125)"/>
<path d="M0 0 C0.66 0.66 1.32 1.32 2 2 C1.18144531 2.81726562 0.36289063 3.63453125 -0.48046875 4.4765625 C-3.67825873 8.31391048 -3.59594324 11.55210431 -3.3125 16.375 C-3.28994141 17.11105469 -3.26738281 17.84710938 -3.24414062 18.60546875 C-3.18572927 20.40453842 -3.09606337 22.20254753 -3 24 C-2.236875 24.268125 -1.47375 24.53625 -0.6875 24.8125 C1.87380884 25.94424112 3.19692938 26.91223401 5 29 C3.58603027 29.13595863 2.16823316 29.23243845 0.75 29.3125 C-0.03890625 29.37050781 -0.8278125 29.42851563 -1.640625 29.48828125 C-4 29 -4 29 -6.30078125 26.87890625 C-9.30248494 21.79326115 -7.97020897 16.62028196 -7 11 C-5.75668884 6.3854028 -3.6416885 3.13938664 0 0 Z " fill="#11080B" transform="translate(9,51)"/>
<path d="M0 0 C0.33 0 0.66 0 1 0 C1.66 3.63 2.32 7.26 3 11 C2.01 11.495 2.01 11.495 1 12 C1.66 12.66 2.32 13.32 3 14 C2.625 16.125 2.625 16.125 2 18 C-2 18 -2 18 -4 17 C-4.66 18.32 -5.32 19.64 -6 21 C-6.5294717 13.98449997 -4.94394944 8.38213856 -2 2 C-1.34 1.34 -0.68 0.68 0 0 Z " fill="#E1DEA4" transform="translate(23,23)"/>
<path d="M0 0 C0 1.32 0 2.64 0 4 C0.99 4 1.98 4 3 4 C2.40138258 6.35171131 1.73075648 8.6859378 1 11 C-1.78863007 12.39431504 -3.92078868 12.25660094 -7 12 C-7.66 11.01 -8.32 10.02 -9 9 C-7.35 8.01 -5.7 7.02 -4 6 C-5.134375 5.731875 -6.26875 5.46375 -7.4375 5.1875 C-8.613125 4.795625 -9.78875 4.40375 -11 4 C-11.33 3.01 -11.66 2.02 -12 1 C-10.56274129 0.83126522 -9.12518162 0.66509263 -7.6875 0.5 C-6.88699219 0.4071875 -6.08648437 0.314375 -5.26171875 0.21875 C-3 0 -3 0 0 0 Z " fill="#DDDF91" transform="translate(15,26)"/>
<path d="M0 0 C1.093125 0.37125 2.18625 0.7425 3.3125 1.125 C4.42625 1.24875 5.54 1.3725 6.6875 1.5 C11.08849031 2.25879143 14.44524798 3.96536575 18.3125 6.125 C16.44921875 6.70703125 16.44921875 6.70703125 14.3125 7.125 C11.8125 5.625 11.8125 5.625 9.3125 4.125 C2.83613034 1.87626054 -2.98250453 2.08915519 -9.6875 3.125 C-9.3575 4.115 -9.0275 5.105 -8.6875 6.125 C-10.0075 6.455 -11.3275 6.785 -12.6875 7.125 C-12.6875 7.785 -12.6875 8.445 -12.6875 9.125 C-14.6675 10.115 -14.6675 10.115 -16.6875 11.125 C-17.3475 10.465 -18.0075 9.805 -18.6875 9.125 C-19.3475 10.115 -20.0075 11.105 -20.6875 12.125 C-21.0175 10.805 -21.3475 9.485 -21.6875 8.125 C-20.0375 7.465 -18.3875 6.805 -16.6875 6.125 C-16.6875 5.465 -16.6875 4.805 -16.6875 4.125 C-15.3675 4.125 -14.0475 4.125 -12.6875 4.125 C-12.0275 2.805 -11.3675 1.485 -10.6875 0.125 C-9.73875 0.145625 -8.79 0.16625 -7.8125 0.1875 C-4.31363792 0.11752276 -3.30883616 -1.07729549 0 0 Z " fill="#C1C279" transform="translate(48.6875,6.875)"/>
<path d="M0 0 C9.73995772 -0.57293869 9.73995772 -0.57293869 14 3 C14 3.66 14 4.32 14 5 C14.66 5.33 15.32 5.66 16 6 C15.34 7.65 14.68 9.3 14 11 C13.34 11 12.68 11 12 11 C12 10.34 12 9.68 12 9 C10.35 9.33 8.7 9.66 7 10 C7 9.34 7 8.68 7 8 C5.68 7.67 4.36 7.34 3 7 C3.50603992 4.83125748 3.99983813 3.00032373 5 1 C3.35 1 1.7 1 0 1 C0 0.67 0 0.34 0 0 Z " fill="#C2BFA3" transform="translate(53,36)"/>
<path d="M0 0 C1.65 0.33 3.3 0.66 5 1 C5.268125 2.134375 5.53625 3.26875 5.8125 4.4375 C6.4003125 6.2009375 6.4003125 6.2009375 7 8 C10 9.33333333 10 9.33333333 13 8 C14.20272819 10.40545638 14.10071472 11.94996953 14.0625 14.625 C14.05347656 15.44226562 14.04445313 16.25953125 14.03515625 17.1015625 C14.02355469 17.72804688 14.01195313 18.35453125 14 19 C12 18 12 18 11 15 C7.16836808 12.97148898 3.26947129 12.50229074 -1 12 C-1 11.67 -1 11.34 -1 11 C0.65 10.67 2.3 10.34 4 10 C3.42415568 7.61435923 2.77772405 5.33317216 2 3 C1.01 3 0.02 3 -1 3 C-0.67 2.01 -0.34 1.02 0 0 Z " fill="#BBB38C" transform="translate(56,24)"/>
<path d="M0 0 C0.33 0.66 0.66 1.32 1 2 C2.65 1.34 4.3 0.68 6 0 C7.125 4.75 7.125 4.75 6 7 C6.99 7.33 7.98 7.66 9 8 C5.7162062 10.48772258 4.38801417 11.03180444 0.1875 10.6875 C-0.864375 10.460625 -1.91625 10.23375 -3 10 C-2.25 3.375 -2.25 3.375 0 0 Z " fill="#F9E0D8" transform="translate(9,65)"/>
<path d="M0 0 C-1.65 1.65 -3.3 3.3 -5 5 C-2.69 5.66 -0.38 6.32 2 7 C2.33 10.96 2.66 14.92 3 19 C1.35 19.66 -0.3 20.32 -2 21 C-2 20.34 -2 19.68 -2 19 C-1.34 19 -0.68 19 0 19 C-0.11922227 14.91574886 -0.11922227 14.91574886 -1 11 C-3.85065729 9.03271039 -3.85065729 9.03271039 -7 8 C-7.66 7.34 -8.32 6.68 -9 6 C-9 5.01 -9 4.02 -9 3 C-8.34 3 -7.68 3 -7 3 C-7 2.34 -7 1.68 -7 1 C-4.53721199 -0.231394 -2.7204945 -0.07159196 0 0 Z " fill="#1D1E0C" transform="translate(12,31)"/>
<path d="M0 0 C0.66 0.33 1.32 0.66 2 1 C1.835 1.886875 1.67 2.77375 1.5 3.6875 C1.07004243 6.53596892 0.91558965 9.13004802 1 12 C-0.65 12.33 -2.3 12.66 -4 13 C-4 11.68 -4 10.36 -4 9 C-5.65 9.33 -7.3 9.66 -9 10 C-9.66 8.68 -10.32 7.36 -11 6 C-9.02 5.67 -7.04 5.34 -5 5 C-5 4.01 -5 3.02 -5 2 C-2.625 0.9375 -2.625 0.9375 0 0 Z " fill="#5C5737" transform="translate(19,17)"/>
<path d="M0 0 C0.66 0 1.32 0 2 0 C3.58939347 3.17878694 3.41576711 5.4956772 3 9 C1.18128269 11.13155789 -0.65987943 12.39116711 -3 14 C-6.07692308 8.58461538 -6.07692308 8.58461538 -5.6875 5.625 C-5.460625 5.08875 -5.23375 4.5525 -5 4 C-4.0409375 3.8453125 -4.0409375 3.8453125 -3.0625 3.6875 C-2.381875 3.460625 -1.70125 3.23375 -1 3 C-0.67 2.01 -0.34 1.02 0 0 Z " fill="#D9D893" transform="translate(77,59)"/>
<path d="M0 0 C1.45823212 -0.0270043 2.91660675 -0.04639787 4.375 -0.0625 C5.18710937 -0.07410156 5.99921875 -0.08570313 6.8359375 -0.09765625 C9 0 9 0 11 1 C10.25 6.75 10.25 6.75 8 9 C5.5 9.25 5.5 9.25 3 9 C0.23776722 6.23776722 0.42143709 3.79293383 0 0 Z " fill="#D1C7B1" transform="translate(29,34)"/>
<path d="M0 0 C7.01834862 2.02752294 7.01834862 2.02752294 9 5 C9.1875 7.6875 9.1875 7.6875 9 10 C6.03 10 3.06 10 0 10 C0 9.34 0 8.68 0 8 C-0.99 7.67 -1.98 7.34 -3 7 C-2.01 7 -1.02 7 0 7 C-0.66 5.35 -1.32 3.7 -2 2 C-1.34 2 -0.68 2 0 2 C0 1.34 0 0.68 0 0 Z " fill="#FCE3D8" transform="translate(47,70)"/>
<path d="M0 0 C1.3671875 1.375 1.3671875 1.375 3.2421875 3.75 C2.9121875 4.41 2.5821875 5.07 2.2421875 5.75 C0.5715625 4.76 0.5715625 4.76 -1.1328125 3.75 C-7.34149616 0.62911639 -14.12647433 0.98164315 -20.7578125 2.75 C-19.7578125 -0.25 -19.7578125 -0.25 -16.7578125 -2.25 C-11.24336779 -3.79186776 -4.78429825 -3.40216765 0 0 Z " fill="#FCC0DB" transform="translate(52.7578125,56.25)"/>
<path d="M0 0 C6.98884906 -0.78788695 11.35844832 0.02221283 17.015625 4.28515625 C23.79856421 10.14679072 23.79856421 10.14679072 24.3125 14.875 C24.209375 15.57625 24.10625 16.2775 24 17 C21.84808353 14.92493769 19.94595889 12.92546054 18.1875 10.5 C13.36908031 4.99323464 6.81296987 3.03925629 0 1 C0 0.67 0 0.34 0 0 Z " fill="#1A1809" transform="translate(56,0)"/>
<path d="M0 0 C1.32 0 2.64 0 4 0 C3.34 1.98 2.68 3.96 2 6 C3.32 6.33 4.64 6.66 6 7 C6 7.66 6 8.32 6 9 C6.66 9 7.32 9 8 9 C8.33 8.34 8.66 7.68 9 7 C9.66 7.33 10.32 7.66 11 8 C10.67 8.99 10.34 9.98 10 11 C8.68 11 7.36 11 6 11 C6 11.99 6 12.98 6 14 C6.99 14 7.98 14 9 14 C9 14.66 9 15.32 9 16 C7.68 15.67 6.36 15.34 5 15 C4.67 13.35 4.34 11.7 4 10 C3.360625 9.855625 2.72125 9.71125 2.0625 9.5625 C0 9 0 9 -1 8 C-1.23529412 2.47058824 -1.23529412 2.47058824 0 0 Z " fill="#D9C3B1" transform="translate(54,37)"/>
<path d="M0 0 C0 1.32 0 2.64 0 4 C-1.65 4 -3.3 4 -5 4 C-5 3.01 -5 2.02 -5 1 C-8.34373475 1.55728913 -11.03312999 2.35173889 -14 4 C-14 3.34 -14 2.68 -14 2 C-14.99 2.495 -14.99 2.495 -16 3 C-17.32 3 -18.64 3 -20 3 C-20 1.68 -20 0.36 -20 -1 C-12.88319978 -2.77920006 -6.83658271 -2.2788609 0 0 Z " fill="#C6C77F" transform="translate(55,2)"/>
<path d="M0 0 C0.33 0.66 0.66 1.32 1 2 C2.64363134 2.72159424 4.31050386 3.39351421 6 4 C6.33 3.34 6.66 2.68 7 2 C7.12375 2.639375 7.2475 3.27875 7.375 3.9375 C7.58125 4.618125 7.7875 5.29875 8 6 C8.66 6.33 9.32 6.66 10 7 C10 8.65 10 10.3 10 12 C8.02 12 6.04 12 4 12 C3.34 9.69 2.68 7.38 2 5 C0.7934375 4.814375 0.7934375 4.814375 -0.4375 4.625 C-1.283125 4.41875 -2.12875 4.2125 -3 4 C-3.33 3.34 -3.66 2.68 -4 2 C-2.68 1.34 -1.36 0.68 0 0 Z " fill="#D2A4AD" transform="translate(52,68)"/>
<path d="M0 0 C0 0.66 0 1.32 0 2 C1.65 1.34 3.3 0.68 5 0 C5 0.66 5 1.32 5 2 C3.02 2.99 3.02 2.99 1 4 C1 5.65 1 7.3 1 9 C0.01 8.67 -0.98 8.34 -2 8 C-2.99 8.33 -3.98 8.66 -5 9 C-5 8.34 -5 7.68 -5 7 C-5.66 7 -6.32 7 -7 7 C-6.625 4.0625 -6.625 4.0625 -6 1 C-4 0 -4 0 0 0 Z " fill="#8A7B83" transform="translate(71,60)"/>
<path d="M0 0 C0.66 0.33 1.32 0.66 2 1 C1.67 1.845625 1.34 2.69125 1 3.5625 C-0.06105954 7.20989216 -0.15109013 10.22274664 0 14 C0.33 14 0.66 14 1 14 C1.33 16.31 1.66 18.62 2 21 C0.35 21 -1.3 21 -3 21 C-4.10228696 16.59085217 -4.07654536 12.51617599 -4 8 C-3.34 8 -2.68 8 -2 8 C-1.34 5.36 -0.68 2.72 0 0 Z " fill="#816B7F" transform="translate(18,29)"/>
<path d="M0 0 C0.33 0 0.66 0 1 0 C1 3.3 1 6.6 1 10 C-2.3 10 -5.6 10 -9 10 C-9 9.34 -9 8.68 -9 8 C-7.28515625 6.30859375 -7.28515625 6.30859375 -5.0625 4.4375 C-3.96615234 3.50744141 -3.96615234 3.50744141 -2.84765625 2.55859375 C-2.23792969 2.04425781 -1.62820312 1.52992187 -1 1 C-0.67 0.67 -0.34 0.34 0 0 Z " fill="#D6D88F" transform="translate(79,70)"/>
<path d="M0 0 C0.66 0.66 1.32 1.32 2 2 C1.625 4.125 1.625 4.125 1 6 C-4.76926889 7.40333568 -10.18143105 6.67296616 -16 6 C-15.34 5.67 -14.68 5.34 -14 5 C-14 4.34 -14 3.68 -14 3 C-13.01 3 -12.02 3 -11 3 C-11 2.34 -11 1.68 -11 1 C-10.01 1.33 -9.02 1.66 -8 2 C-8 2.66 -8 3.32 -8 4 C-3.58477891 2.73025028 -3.58477891 2.73025028 0 0 Z " fill="#E1D8B1" transform="translate(59,29)"/>
<path d="M0 0 C1.32 1.65 2.64 3.3 4 5 C3.01 5 2.02 5 1 5 C1 5.66 1 6.32 1 7 C1.66 7 2.32 7 3 7 C3.66 9.31 4.32 11.62 5 14 C4.34 13.67 3.68 13.34 3 13 C2.34 13.66 1.68 14.32 1 15 C-0.12880057 11.68885166 -1.21302675 8.41021743 -2 5 C-2.99 5 -3.98 5 -5 5 C-5 4.34 -5 3.68 -5 3 C-4.360625 2.87625 -3.72125 2.7525 -3.0625 2.625 C-2.0415625 2.315625 -2.0415625 2.315625 -1 2 C-0.67 1.34 -0.34 0.68 0 0 Z " fill="#C7C97C" transform="translate(73,13)"/>
<path d="M0 0 C1.65 0.33 3.3 0.66 5 1 C4.01 1.66 3.02 2.32 2 3 C2 4.32 2 5.64 2 7 C0.35 7 -1.3 7 -3 7 C-2.01 8.32 -1.02 9.64 0 11 C-2.375 10.8125 -2.375 10.8125 -5 10 C-6.3125 7.4375 -6.3125 7.4375 -7 5 C-6.21625 4.731875 -5.4325 4.46375 -4.625 4.1875 C-1.71885077 3.15185568 -1.71885077 3.15185568 0 0 Z " fill="#18180C" transform="translate(7,21)"/>
<path d="M0 0 C0.66 0 1.32 0 2 0 C1.25 5.75 1.25 5.75 -1 8 C-0.34 8.66 0.32 9.32 1 10 C-1.31 10 -3.62 10 -6 10 C-5.34 10.66 -4.68 11.32 -4 12 C-4.99 12.495 -4.99 12.495 -6 13 C-7.68762851 11.3545622 -9.3540349 9.68711423 -11 8 C-11 7.67 -11 7.34 -11 7 C-10.37351563 6.91363281 -9.74703125 6.82726563 -9.1015625 6.73828125 C-6.63217125 6.31373291 -4.35643158 5.85727584 -2 5 C-0.32386813 2.52985528 -0.32386813 2.52985528 0 0 Z " fill="#8C8552" transform="translate(64,50)"/>
<path d="M0 0 C0.33 0.66 0.66 1.32 1 2 C1.66 2 2.32 2 3 2 C3.103125 3.03125 3.20625 4.0625 3.3125 5.125 C3.99127797 8.95083945 5.11158795 11.63370025 7 15 C5.35 15.33 3.7 15.66 2 16 C1.47090114 13.71022755 0.95194981 11.41810812 0.4375 9.125 C0.14746094 7.84882813 -0.14257812 6.57265625 -0.44140625 5.2578125 C-1 2 -1 2 0 0 Z " fill="#EBE7B0" transform="translate(60,18)"/>
<path d="M0 0 C-0.66 1.32 -1.32 2.64 -2 4 C-2 3.01 -2 2.02 -2 1 C-6.455 1.495 -6.455 1.495 -11 2 C-11.33 2.99 -11.66 3.98 -12 5 C-15.875 3.25 -15.875 3.25 -17 1 C-16.01 1 -15.02 1 -14 1 C-14 0.34 -14 -0.32 -14 -1 C-8.65998179 -2.33500455 -5.16044765 -1.512545 0 0 Z " fill="#5C4F44" transform="translate(40,33)"/>
<path d="M0 0 C0.66 0.66 1.32 1.32 2 2 C1.195625 2.804375 0.39125 3.60875 -0.4375 4.4375 C-3.68813058 8.26663263 -3.88073863 12.1211256 -4 17 C-4.99 16.67 -5.98 16.34 -7 16 C-6.97061497 9.52060152 -5.80173678 5.90956687 -1.27734375 1.21484375 C-0.64505859 0.61349609 -0.64505859 0.61349609 0 0 Z " fill="#331C2A" transform="translate(9,51)"/>
<path d="M0 0 C0 0.99 0 1.98 0 3 C-1.63260714 4.37482707 -3.30225062 5.70647667 -5 7 C-5.99 8.485 -5.99 8.485 -7 10 C-7.66 10 -8.32 10 -9 10 C-9.33 10.66 -9.66 11.32 -10 12 C-10 10.68 -10 9.36 -10 8 C-9.01 8 -8.02 8 -7 8 C-7 6.68 -7 5.36 -7 4 C-8.32 3.67 -9.64 3.34 -11 3 C-9.35 2.34 -7.7 1.68 -6 1 C-5.34 1.99 -4.68 2.98 -4 4 C-2.68 2.68 -1.36 1.36 0 0 Z " fill="#B6B56E" transform="translate(79,68)"/>
<path d="M0 0 C0.66 0 1.32 0 2 0 C2.268125 1.11375 2.53625 2.2275 2.8125 3.375 C3.65809019 7.21840951 3.65809019 7.21840951 7 9 C6.195625 9.12375 5.39125 9.2475 4.5625 9.375 C3.716875 9.58125 2.87125 9.7875 2 10 C1.67 10.66 1.34 11.32 1 12 C-0.32 11.34 -1.64 10.68 -3 10 C-3 9.34 -3 8.68 -3 8 C-2.34 7.67 -1.68 7.34 -1 7 C-0.59270772 4.67843403 -0.25561323 2.3431213 0 0 Z " fill="#EAD1BB" transform="translate(28,35)"/>
<path d="M0 0 C0.33 0 0.66 0 1 0 C1 1.98 1 3.96 1 6 C2.32 6.33 3.64 6.66 5 7 C5 10.3 5 13.6 5 17 C4.01 16.34 3.02 15.68 2 15 C1.59156077 12.28796348 1.86663133 9.7562858 2 7 C1.34 7 0.68 7 0 7 C-1.125 2.25 -1.125 2.25 0 0 Z " fill="#918A51" transform="translate(75,28)"/>
<path d="M0 0 C0.2475 0.61875 0.495 1.2375 0.75 1.875 C2.20628639 4.35068687 3.37812506 4.95125002 6 6 C5.67 6.99 5.34 7.98 5 9 C3.0625 9.75 3.0625 9.75 1 10 C0.34 9.67 -0.32 9.34 -1 9 C-1.09765625 2.84765625 -1.09765625 2.84765625 -1 1 C-0.67 0.67 -0.34 0.34 0 0 Z " fill="#F9D8CD" transform="translate(57,47)"/>
<path d="M0 0 C0.66 0.66 1.32 1.32 2 2 C1.67 2.99 1.34 3.98 1 5 C0.34 4.67 -0.32 4.34 -1 4 C-1 5.98 -1 7.96 -1 10 C-2.32 10 -3.64 10 -5 10 C-5 11.32 -5 12.64 -5 14 C-5.99 13.67 -6.98 13.34 -8 13 C-7.34 11.02 -6.68 9.04 -6 7 C-5.34 7 -4.68 7 -4 7 C-2.68 4.69 -1.36 2.38 0 0 Z " fill="#9E9B5A" transform="translate(74,46)"/>
<path d="M0 0 C0.33 0.66 0.66 1.32 1 2 C0.34 2 -0.32 2 -1 2 C-1 2.66 -1 3.32 -1 4 C-0.01 3.01 0.98 2.02 2 1 C2.99 1.33 3.98 1.66 5 2 C4.67 2.99 4.34 3.98 4 5 C-0.04141194 5.63394697 -3.9065307 6.12404452 -8 6 C-8 5.34 -8 4.68 -8 4 C-5.36 2.68 -2.72 1.36 0 0 Z " fill="#D6D88D" transform="translate(42,2)"/>
<path d="M0 0 C0 0.66 0 1.32 0 2 C-0.66 2 -1.32 2 -2 2 C-2.33 2.99 -2.66 3.98 -3 5 C-4.95597184 6.39712274 -6.95436401 7.73779907 -9 9 C-8.6507442 5.85669777 -8.16074267 4.20508548 -6.1875 1.6875 C-4 0 -4 0 0 0 Z " fill="#F6BBDA" transform="translate(16,51)"/>
<path d="M0 0 C0.99 0.33 1.98 0.66 3 1 C2.34 1 1.68 1 1 1 C1.33 2.65 1.66 4.3 2 6 C1.01 5.67 0.02 5.34 -1 5 C-0.67 7.31 -0.34 9.62 0 12 C-1.32 11.34 -2.64 10.68 -4 10 C-3.5205537 5.78087253 -2.83374881 3.20336822 0 0 Z " fill="#A19562" transform="translate(26,38)"/>
<path d="M0 0 C2 1 2 1 3.125 3.25 C4.00513321 6.01613295 4.1645438 8.12048351 4 11 C2.35 11.66 0.7 12.32 -1 13 C-1 12.34 -1 11.68 -1 11 C-0.34 11 0.32 11 1 11 C0.835 9.741875 0.67 8.48375 0.5 7.1875 C0.17841759 4.73543415 0 2.48349306 0 0 Z " fill="#120B16" transform="translate(11,39)"/>
<path d="M0 0 C1.32 0 2.64 0 4 0 C4.33 1.98 4.66 3.96 5 6 C3.02 6.99 3.02 6.99 1 8 C0 7 0 7 -0.0625 3.4375 C-0.041875 2.303125 -0.02125 1.16875 0 0 Z " fill="#EDEAB3" transform="translate(36,14)"/>
<path d="M0 0 C9.73995772 -0.57293869 9.73995772 -0.57293869 14 3 C14 3.66 14 4.32 14 5 C14.66 5.33 15.32 5.66 16 6 C14.35 6.66 12.7 7.32 11 8 C11 6.68 11 5.36 11 4 C7.37 3.01 3.74 2.02 0 1 C0 0.67 0 0.34 0 0 Z " fill="#48402F" transform="translate(53,36)"/>
<path d="M0 0 C0 0.33 0 0.66 0 1 C-0.60328125 1.18175781 -1.2065625 1.36351563 -1.828125 1.55078125 C-6.10210307 2.89501629 -9.52439351 4.08049055 -13 7 C-13.66 7 -14.32 7 -15 7 C-15 6.01 -15 5.02 -15 4 C-10.15425142 -0.34874873 -6.16482758 -0.49318621 0 0 Z " fill="#211C0E" transform="translate(40,0)"/>
<path d="M0 0 C-3.41139003 1.09651823 -6.20655581 0.94215473 -9.75 0.5625 C-11.22726563 0.40974609 -11.22726563 0.40974609 -12.734375 0.25390625 C-13.48203125 0.17011719 -14.2296875 0.08632813 -15 0 C-15 -0.66 -15 -1.32 -15 -2 C-9.05542387 -3.09644404 -5.32006564 -3.41029848 0 0 Z " fill="#F9BFD8" transform="translate(32,52)"/>
<path d="M0 0 C1.98 0.99 3.96 1.98 6 3 C5.01 3.495 5.01 3.495 4 4 C4 4.66 4 5.32 4 6 C4.66 6.33 5.32 6.66 6 7 C4.35 7 2.7 7 1 7 C1 6.01 1 5.02 1 4 C-0.65 3.67 -2.3 3.34 -4 3 C-2.68 2.67 -1.36 2.34 0 2 C0 1.34 0 0.68 0 0 Z " fill="#D8DA90" transform="translate(66,9)"/>
<path d="M0 0 C1.32 0.66 2.64 1.32 4 2 C4 3.65 4 5.3 4 7 C2.02 7 0.04 7 -2 7 C-1.34 4.69 -0.68 2.38 0 0 Z " fill="#372F26" transform="translate(58,73)"/>
<path d="M0 0 C2.00720923 0.28674418 4.0085944 0.61866701 6 1 C5.34 2.32 4.68 3.64 4 5 C2 5 0 5 -2 5 C-1.125 1.125 -1.125 1.125 0 0 Z " fill="#9B8FA1" transform="translate(58,38)"/>
<path d="M0 0 C1.37562854 1.28965176 2.70766393 2.62689293 4 4 C4 4.66 4 5.32 4 6 C2.35 5.67 0.7 5.34 -1 5 C-1.33 5.99 -1.66 6.98 -2 8 C-2.66 8 -3.32 8 -4 8 C-4.66 6.68 -5.32 5.36 -6 4 C-4.02 3.67 -2.04 3.34 0 3 C0 2.01 0 1.02 0 0 Z " fill="#3A3527" transform="translate(14,19)"/>
<path d="M0 0 C2.31 0 4.62 0 7 0 C7 1.32 7 2.64 7 4 C4.69 4 2.38 4 0 4 C0 2.68 0 1.36 0 0 Z " fill="#DBD994" transform="translate(62,76)"/>
<path d="M0 0 C-0.66 1.32 -1.32 2.64 -2 4 C-2 3.34 -2 2.68 -2 2 C-2.928125 2.515625 -3.85625 3.03125 -4.8125 3.5625 C-8 5 -8 5 -11 4 C-11.33 3.01 -11.66 2.02 -12 1 C-10.56274129 0.83126522 -9.12518162 0.66509263 -7.6875 0.5 C-6.88699219 0.4071875 -6.08648437 0.314375 -5.26171875 0.21875 C-3 0 -3 0 0 0 Z " fill="#C9CD90" transform="translate(15,26)"/>
<path d="M0 0 C0.99 0 1.98 0 3 0 C2.34 1.98 1.68 3.96 1 6 C2.32 6.33 3.64 6.66 5 7 C5 7.66 5 8.32 5 9 C3.35 8.67 1.7 8.34 0 8 C-0.79953138 4.71303767 -1.09658936 3.28976808 0 0 Z " fill="#E1DEC8" transform="translate(55,37)"/>
<path d="M0 0 C0.66 0.33 1.32 0.66 2 1 C1.01 4.96 0.02 8.92 -1 13 C-1.99 13 -2.98 13 -4 13 C-4 11.35 -4 9.7 -4 8 C-3.34 8 -2.68 8 -2 8 C-1.34 5.36 -0.68 2.72 0 0 Z " fill="#B0AE79" transform="translate(18,29)"/>
<path d="M0 0 C0.66 0 1.32 0 2 0 C2 0.66 2 1.32 2 2 C1.34 2 0.68 2 0 2 C-0.33 4.31 -0.66 6.62 -1 9 C-2.65 8.67 -4.3 8.34 -6 8 C-6 7.34 -6 6.68 -6 6 C-5.01 6 -4.02 6 -3 6 C-2.690625 5.195625 -2.38125 4.39125 -2.0625 3.5625 C-1 1 -1 1 0 0 Z " fill="#6D634A" transform="translate(65,59)"/>
<path d="M0 0 C1.32 0 2.64 0 4 0 C3.67 1.65 3.34 3.3 3 5 C1.35 5 -0.3 5 -2 5 C-1.34 3.35 -0.68 1.7 0 0 Z " fill="#A494AD" transform="translate(34,34)"/>
<path d="M0 0 C0.33 0 0.66 0 1 0 C0.67 3.3 0.34 6.6 0 10 C-0.99 10 -1.98 10 -3 10 C-2.67 7.36 -2.34 4.72 -2 2 C-1.34 2 -0.68 2 0 2 C0 1.34 0 0.68 0 0 Z " fill="#DBD8A1" transform="translate(32,22)"/>
<path d="M0 0 C8.57142857 -0.28571429 8.57142857 -0.28571429 12 2 C10.5 3.1875 10.5 3.1875 8 4 C5.21175762 3.27101296 2.62334908 2.1843275 0 1 C0 0.67 0 0.34 0 0 Z " fill="#A2A065" transform="translate(48,0)"/>
<path d="M0 0 C1.98 0 3.96 0 6 0 C5.67 1.32 5.34 2.64 5 4 C3.02 4 1.04 4 -1 4 C-1.33 3.34 -1.66 2.68 -2 2 C-1.34 2 -0.68 2 0 2 C0 1.34 0 0.68 0 0 Z " fill="#C9C186" transform="translate(60,67)"/>
<path d="M0 0 C0.94875 0.04125 1.8975 0.0825 2.875 0.125 C3.205 1.115 3.535 2.105 3.875 3.125 C3.09125 3.269375 2.3075 3.41375 1.5 3.5625 C-1.08921018 4.00298925 -1.08921018 4.00298925 -3.125 5.125 C-3.125 4.465 -3.125 3.805 -3.125 3.125 C-3.785 2.795 -4.445 2.465 -5.125 2.125 C-3.125 0.125 -3.125 0.125 0 0 Z " fill="#D6ADA5" transform="translate(44.125,42.875)"/>
<path d="M0 0 C2 3.75 2 3.75 2 6 C4.475 6.99 4.475 6.99 7 8 C5.1875 8.6875 5.1875 8.6875 3 9 C0.5738986 7.38259907 0.05308381 6.18579332 -0.75 3.375 C-0.8325 2.59125 -0.915 1.8075 -1 1 C-0.67 0.67 -0.34 0.34 0 0 Z " fill="#605453" transform="translate(4,69)"/>
<path d="M0 0 C1.32 0.66 2.64 1.32 4 2 C4 3.32 4 4.64 4 6 C2.68 6.33 1.36 6.66 0 7 C-0.66 5.35 -1.32 3.7 -2 2 C-1.34 2 -0.68 2 0 2 C0 1.34 0 0.68 0 0 Z " fill="#F7D8D2" transform="translate(47,70)"/>
<path d="M0 0 C0.33 0.66 0.66 1.32 1 2 C1.99 2.33 2.98 2.66 4 3 C3.01 3.495 3.01 3.495 2 4 C1.34 3.67 0.68 3.34 0 3 C-0.33 4.32 -0.66 5.64 -1 7 C-1 6.01 -1 5.02 -1 4 C-1.99 4 -2.98 4 -4 4 C-4 3.01 -4 2.02 -4 1 C-2.68 0.67 -1.36 0.34 0 0 Z " fill="#C9BC8E" transform="translate(64,47)"/>
<path d="M0 0 C1.65 0.33 3.3 0.66 5 1 C3.515 3.475 3.515 3.475 2 6 C-1.875 4.25 -1.875 4.25 -3 2 C-2.01 2 -1.02 2 0 2 C0 1.34 0 0.68 0 0 Z " fill="#524B2E" transform="translate(26,32)"/>
<path d="M0 0 C-1.61594832 2.04119788 -3.2856382 4.04072937 -5 6 C-5.66 6 -6.32 6 -7 6 C-7 4.35 -7 2.7 -7 1 C-4.53721199 -0.231394 -2.7204945 -0.07159196 0 0 Z " fill="#3C3E21" transform="translate(12,31)"/>
<path d="M0 0 C0.66 0.66 1.32 1.32 2 2 C1.625 4.125 1.625 4.125 1 6 C-0.65 5.67 -2.3 5.34 -4 5 C-2.68 3.35 -1.36 1.7 0 0 Z " fill="#F3DFC6" transform="translate(59,29)"/>
<path d="M0 0 C0 0.66 0 1.32 0 2 C0.99 2.33 1.98 2.66 3 3 C1.35 3.66 -0.3 4.32 -2 5 C-2 4.34 -2 3.68 -2 3 C-3.98 3 -5.96 3 -8 3 C-4.93882432 0.37613513 -4.26826873 0 0 0 Z " fill="#E1E49E" transform="translate(15,28)"/>
<path d="M0 0 C0.66 0.33 1.32 0.66 2 1 C1.34 2.65 0.68 4.3 0 6 C-1.32 5.67 -2.64 5.34 -4 5 C-3.6875 3.0625 -3.6875 3.0625 -3 1 C-2.01 0.67 -1.02 0.34 0 0 Z " fill="#534F34" transform="translate(19,17)"/>
<path d="M0 0 C0.66 0.33 1.32 0.66 2 1 C2 2.65 2 4.3 2 6 C0.68 5.67 -0.64 5.34 -2 5 C-2.33 3.68 -2.66 2.36 -3 1 C-2.01 0.67 -1.02 0.34 0 0 Z " fill="#C998A3" transform="translate(45,74)"/>
<path d="M0 0 C1.98 0 3.96 0 6 0 C6.33 0.99 6.66 1.98 7 3 C4.69 3 2.38 3 0 3 C0 2.01 0 1.02 0 0 Z " fill="#DDD698" transform="translate(59,71)"/>
<path d="M0 0 C1.98 0 3.96 0 6 0 C5.67 0.99 5.34 1.98 5 3 C5.66 3.66 6.32 4.32 7 5 C6.01 5.495 6.01 5.495 5 6 C3.31237149 4.3545622 1.6459651 2.68711423 0 1 C0 0.67 0 0.34 0 0 Z " fill="#AD9778" transform="translate(53,57)"/>
<path d="M0 0 C0.99 0.33 1.98 0.66 3 1 C3.33 3.31 3.66 5.62 4 8 C2 6.8125 2 6.8125 0 5 C-0.25 2.3125 -0.25 2.3125 0 0 Z " fill="#DCD99A" transform="translate(73,50)"/>
<path d="M0 0 C2.475 0.495 2.475 0.495 5 1 C4.67 2.65 4.34 4.3 4 6 C3.34 6 2.68 6 2 6 C2 5.34 2 4.68 2 4 C1.34 4 0.68 4 0 4 C0 2.68 0 1.36 0 0 Z " fill="#7F6D81" transform="translate(64,63)"/>
<path d="M0 0 C0.99 0.33 1.98 0.66 3 1 C3 2.32 3 3.64 3 5 C1.35 5.33 -0.3 5.66 -2 6 C-1.34 4.02 -0.68 2.04 0 0 Z " fill="#FED2CD" transform="translate(30,43)"/>
<path d="M0 0 C0.8971875 0.99 0.8971875 0.99 1.8125 2 C3.87501834 4.3373846 3.87501834 4.3373846 7 4 C7 4.66 7 5.32 7 6 C5.35 6.33 3.7 6.66 2 7 C2 6.34 2 5.68 2 5 C1.34 5 0.68 5 0 5 C0 3.35 0 1.7 0 0 Z " fill="#BCB28D" transform="translate(38,28)"/>
<path d="M0 0 C0.99 0 1.98 0 3 0 C5 3 5 3 5 6 C3.0625 5.25 3.0625 5.25 1 4 C0.25 1.875 0.25 1.875 0 0 Z " fill="#D0D19D" transform="translate(73,11)"/>
<path d="M0 0 C1.98 0.99 1.98 0.99 4 2 C4 3.32 4 4.64 4 6 C2.68 5.34 1.36 4.68 0 4 C0 2.68 0 1.36 0 0 Z " fill="#F4F39C" transform="translate(76,47)"/>
<path d="M0 0 C0.66 0 1.32 0 2 0 C2 0.99 2 1.98 2 3 C2.66 3.33 3.32 3.66 4 4 C3.01 4 2.02 4 1 4 C0.67 4.66 0.34 5.32 0 6 C-0.66 4.68 -1.32 3.36 -2 2 C-1.34 2 -0.68 2 0 2 C0 1.34 0 0.68 0 0 Z " fill="#FAF8C6" transform="translate(48,17)"/>
<path d="M0 0 C0.33 0.99 0.66 1.98 1 3 C0.01 4.485 0.01 4.485 -1 6 C-1.66 6 -2.32 6 -3 6 C-3 4.35 -3 2.7 -3 1 C-2.01 0.67 -1.02 0.34 0 0 Z " fill="#B7B971" transform="translate(24,12)"/>
</svg>
